<svg height="512pt" viewBox="0 -31 512.00016 512" width="512pt" xmlns="http://www.w3.org/2000/svg"><path d="m15 60h82.140625c1.484375 3.433594 92.421875 214.023438 90.683594 210h-5.824219c-33.089844 0-60 26.90625-60 60 0 24.214844 14.484375 45.003906 35.1875 54.472656-3.203125 6.183594-5.1875 13.09375-5.1875 20.527344 0 24.8125 20.1875 45 45 45s45-20.199219 45-45.011719c0-5.285156-1.082031-10.285156-2.761719-15h155.523438c-1.679688 4.714844-2.761719 9.714844-2.761719 15 0 24.8125 20.183594 45.011719 45 45.011719 24.8125 0 45-20.1875 45-45 0-24.816406-20.1875-45-45-45h-255c-16.539062 0-30-13.464844-30-30 0-16.539062 13.460938-30 30-30h255c6.460938 0 12.1875-4.132812 14.222656-10.253906l60-180c1.539063-4.570313.761719-9.609375-2.050781-13.523438-2.828125-3.910156-7.355469-6.222656-12.171875-6.222656h-354.230469l-22-50.949219c-2.375-5.492187-7.777343-9.050781-13.769531-9.050781h-92c-8.289062 0-15 6.707031-15 15 0 8.289062 6.710938 15 15 15zm287 210h-32.292969l-5.003906-30h37.296875zm0-60h-42.296875l-5-30h47.296875zm117.707031-90h56.476563l-10 30h-51.476563zm-10.003906 60h46.480469l-9.996094 30h-41.484375zm-10 60h36.484375l-10 30h-31.484375zm-67.703125-120h57.296875l-5.003906 30h-52.292969zm0 60h47.292969l-5 30h-42.292969zm0 60h37.292969l-5 30h-32.292969zm-30-120v30h-52.296875l-5-30zm-62.703125 150c-2.597656 0-16.75 0-18.800781 0l-12.953125-30h26.753906zm-10.003906-60h-34.707031l-12.957032-30h42.664063zm-15-90 5 30h-50.617188l-12.957031-30zm0 0"/><path d="m246.394531 4.394531-55.605469 55.605469h132.421876l-55.605469-55.605469c-5.859375-5.859375-15.351563-5.859375-21.210938 0zm0 0"/><path d="m366.394531 4.394531-28.183593 28.183594 27.421874 27.421875h77.578126l-55.605469-55.605469c-5.859375-5.859375-15.351563-5.859375-21.210938 0zm0 0"/></svg>